<svg version="1.1" xmlns="http://www.w3.org/2000/svg" xmlns:xlink="http://www.w3.org/1999/xlink" width="118.72966" height="98.73517" viewBox="0,0,118.72966,98.73517"><defs><linearGradient x1="217.55687" y1="161.42815" x2="261.90271" y2="161.42815" gradientUnits="userSpaceOnUse" id="color-1"><stop offset="0" stop-color="#cd82cb"/><stop offset="1" stop-color="#9c9fe5"/></linearGradient><linearGradient x1="180.63517" y1="201.80093" x2="225.45509" y2="201.80093" gradientUnits="userSpaceOnUse" id="color-2"><stop offset="0" stop-color="#fe66b3"/><stop offset="1" stop-color="#cc83cc"/></linearGradient><linearGradient x1="254.54491" y1="200.97971" x2="299.36483" y2="200.97971" gradientUnits="userSpaceOnUse" id="color-3"><stop offset="0" stop-color="#9e9ce3"/><stop offset="1" stop-color="#68bcff"/></linearGradient></defs><g transform="translate(-180.63517,-130.63242)"><g data-paper-data="{&quot;isPaintingLayer&quot;:true}" fill-rule="nonzero" stroke="#000000" stroke-width="0" stroke-linecap="butt" stroke-linejoin="miter" stroke-miterlimit="10" stroke-dasharray="" stroke-dashoffset="0" style="mix-blend-mode: normal"><path d="M239.72978,192.22387c-12.24577,0 -22.17292,-10.11099 -22.17292,-22.58353c0,-12.47254 22.17292,-39.00792 22.17292,-39.00792c0,0 22.17293,26.53538 22.17293,39.00792c0,12.47254 -9.92716,22.58353 -22.17293,22.58353z" fill="url(#color-1)"/><path d="M215.49712,225.81665c-10.25575,6.69168 -24.0948,3.64849 -30.91041,-6.79717c-6.8156,-10.44566 -2.74618,-44.7852 -2.74618,-44.7852c0,0 33.06989,10.1068 39.88549,20.55246c6.81561,10.44566 4.02684,24.33822 -6.2289,31.02991z" fill="url(#color-2)"/><path d="M258.27398,193.96552c6.81561,-10.44566 39.88549,-20.55246 39.88549,-20.55246c0,0 4.06942,34.33954 -2.74619,44.7852c-6.81561,10.44566 -20.65466,13.48885 -30.9104,6.79717c-10.25574,-6.69169 -13.04451,-20.58425 -6.2289,-31.02991z" data-paper-data="{&quot;index&quot;:null}" fill="url(#color-3)"/></g></g></svg>
