<svg version="1.1" xmlns="http://www.w3.org/2000/svg" xmlns:xlink="http://www.w3.org/1999/xlink" width="461.92721" height="98.73516" viewBox="0,0,461.92721,98.73516"><defs><linearGradient x1="46.4297" y1="163.79573" x2="90.77554" y2="163.79573" gradientUnits="userSpaceOnUse" id="color-1"><stop offset="0" stop-color="#cd82cb"/><stop offset="1" stop-color="#9c9fe5"/></linearGradient><linearGradient x1="9.508" y1="204.16851" x2="54.32792" y2="204.16851" gradientUnits="userSpaceOnUse" id="color-2"><stop offset="0" stop-color="#fe66b3"/><stop offset="1" stop-color="#cc83cc"/></linearGradient><linearGradient x1="83.41774" y1="203.34729" x2="128.23766" y2="203.34729" gradientUnits="userSpaceOnUse" id="color-3"><stop offset="0" stop-color="#9e9ce3"/><stop offset="1" stop-color="#68bcff"/></linearGradient><linearGradient x1="145.47901" y1="195.11901" x2="187.40267" y2="195.11901" gradientUnits="userSpaceOnUse" id="color-4"><stop offset="0" stop-color="#ff65b3"/><stop offset="1" stop-color="#e973be"/></linearGradient><linearGradient x1="427.49737" y1="194.81258" x2="469.8386" y2="194.81258" gradientUnits="userSpaceOnUse" id="color-5"><stop offset="0" stop-color="#79b1f5"/><stop offset="1" stop-color="#66bcff"/></linearGradient><linearGradient x1="189.63256" y1="179.3624" x2="192.38631" y2="179.3624" gradientUnits="userSpaceOnUse" id="color-6"><stop offset="0" stop-color="#e972bd"/><stop offset="1" stop-color="#e873bf"/></linearGradient><linearGradient x1="190.49789" y1="195.11901" x2="232.5155" y2="195.11901" gradientUnits="userSpaceOnUse" id="color-7"><stop offset="0" stop-color="#e972be"/><stop offset="1" stop-color="#d87cc6"/></linearGradient><linearGradient x1="236.51716" y1="196.11943" x2="278.53478" y2="196.11943" gradientUnits="userSpaceOnUse" id="color-8"><stop offset="0" stop-color="#d37ec8"/><stop offset="1" stop-color="#c089d2"/></linearGradient><linearGradient x1="283.86734" y1="196.56256" x2="325.88495" y2="196.56256" gradientUnits="userSpaceOnUse" id="color-9"><stop offset="0" stop-color="#bd8bd4"/><stop offset="1" stop-color="#aa95dc"/></linearGradient><linearGradient x1="336.65674" y1="195.61622" x2="378.67435" y2="195.61622" gradientUnits="userSpaceOnUse" id="color-10"><stop offset="0" stop-color="#a499e0"/><stop offset="1" stop-color="#91a3e9"/></linearGradient><linearGradient x1="378.4633" y1="196.2565" x2="420.48092" y2="196.2565" gradientUnits="userSpaceOnUse" id="color-11"><stop offset="0" stop-color="#91a3e9"/><stop offset="1" stop-color="#7daff3"/></linearGradient><linearGradient x1="142.97875" y1="226.31531" x2="470.7172" y2="226.31531" gradientUnits="userSpaceOnUse" id="color-12"><stop offset="0" stop-color="#ff66b3"/><stop offset="1" stop-color="#66bcff"/></linearGradient><linearGradient x1="143.69676" y1="226.31531" x2="471.43521" y2="226.31531" gradientUnits="userSpaceOnUse" id="color-13"><stop offset="0" stop-color="#ff66b3"/><stop offset="1" stop-color="#66bcff"/></linearGradient></defs><g transform="translate(-9.508,-133)"><g data-paper-data="{&quot;isPaintingLayer&quot;:true}" fill-rule="nonzero" stroke-linecap="butt" stroke-linejoin="miter" stroke-miterlimit="10" stroke-dasharray="" stroke-dashoffset="0" style="mix-blend-mode: normal"><path d="M90.77554,172.00792c0,-12.47254 -22.17293,-39.00792 -22.17293,-39.00792c0,0 -22.17292,26.53538 -22.17292,39.00792c0,12.47254 9.92715,22.58353 22.17292,22.58353c12.24577,0 22.17293,-10.11099 22.17293,-22.58353z" fill="url(#color-1)" stroke="#000000" stroke-width="0"/><path d="M50.59885,197.15432c-6.8156,-10.44566 -39.88549,-20.55246 -39.88549,-20.55246c0,0 -4.06942,34.33954 2.74618,44.7852c6.81561,10.44566 20.65466,13.48885 30.91041,6.79717c10.25574,-6.69169 13.04451,-20.58425 6.2289,-31.02991z" fill="url(#color-2)" stroke="#000000" stroke-width="0"/><path d="M87.14681,196.3331c6.81561,-10.44566 39.88549,-20.55246 39.88549,-20.55246c0,0 4.06942,34.33954 -2.74619,44.7852c-6.81561,10.44566 -20.65466,13.48885 -30.9104,6.79717c-10.25574,-6.69169 -13.04451,-20.58425 -6.2289,-31.02991z" data-paper-data="{&quot;index&quot;:null}" fill="url(#color-3)" stroke="#000000" stroke-width="0"/><path d="M186.00956,202.89761c-3.09159,7.75206 -10.66693,13.23021 -19.52175,13.23021c-11.60285,0 -21.00881,-9.40597 -21.00881,-21.00881c0,-11.60284 9.40597,-21.0088 21.00881,-21.0088c10.92829,0 19.90771,8.34408 20.91485,19.00883" fill="none" stroke="url(#color-4)" stroke-width="2.5"/><path d="M469.8386,215.65633c0,0 -14.44867,0.16506 -21.33242,0.16506c-11.60285,0 -21.00881,-9.40597 -21.00881,-21.00881c0,-11.60284 9.40597,-21.0088 21.00881,-21.0088c11.60285,0 21.00881,9.40596 21.00881,21.0088c0,4.71909 0.32361,20.84375 0.32361,20.84375z" fill="none" stroke="url(#color-5)" stroke-width="2.5"/><path d="M189.63256,216.25287v-73.78092h2.75376v73.78092z" fill="url(#color-6)" stroke="none" stroke-width="2.5"/><path d="M190.79426,197.65501c-0.19489,-1.14972 -0.29637,-2.33122 -0.29637,-3.53642c0,-11.60284 9.40596,-21.0088 21.0088,-21.0088c11.60284,0 21.00881,9.40596 21.00881,21.0088c0,0.4521 -0.01428,0.90086 -0.04242,1.34587l0.04242,21.66378" fill="none" stroke="url(#color-7)" stroke-width="2.5"/><path d="M236.51716,217.62844l0.29637,-18.4728c-0.19489,-1.14971 -0.29637,-2.33122 -0.29637,-3.53642c0,-11.60284 9.40597,-21.0088 21.00881,-21.0088c11.60284,0 21.0088,9.40596 21.0088,21.0088c0,0.4521 -0.01427,0.90087 -0.04241,1.34587" fill="none" stroke="url(#color-8)" stroke-width="2.5"/><path d="M304.87613,217.57137c-11.60285,0 -21.00881,-9.40597 -21.00881,-21.00881c0,-11.60284 9.40597,-21.0088 21.00881,-21.0088c11.60285,0 21.00881,9.40596 21.00881,21.0088c0,11.60285 -9.40597,21.00881 -21.00881,21.00881z" fill="none" stroke="url(#color-9)" stroke-width="2.5"/><path d="M336.65674,217.12523l0.29637,-18.4728c-0.19489,-1.14972 -0.29637,-2.33122 -0.29637,-3.53642c0,-11.60285 9.40597,-21.00881 21.00881,-21.00881c11.60285,0 21.00881,9.40597 21.00881,21.00881c0,0.4521 -0.01428,0.90086 -0.04242,1.34586" fill="none" stroke="url(#color-10)" stroke-width="2.5"/><path d="M378.61428,218.90827l-0.10855,-22.94885c-0.02814,-0.44501 -0.04242,-0.89377 -0.04242,-1.34587c0,-11.60285 9.40597,-21.00881 21.00881,-21.00881c11.60284,0 21.0088,9.40597 21.0088,21.00881c0,1.2052 -0.10148,2.3867 -0.29637,3.53642l0.29637,18.4728" data-paper-data="{&quot;index&quot;:null}" fill="none" stroke="url(#color-11)" stroke-width="2.5"/><path d="M142.97875,229.54957v-6.46852h311.94232l-5.38504,6.46852z" fill="url(#color-12)" stroke="#000000" stroke-width="0"/><path d="M456.17758,223.08105h15.25763v6.46852h-19.92467z" fill="url(#color-13)" stroke="#000000" stroke-width="0"/></g></g></svg>
